<svg xmlns="http://www.w3.org/2000/svg" width="780" height="256" viewBox="0 0 780 256"><rect width="100%" height="100%" fill="#DDDDDD"/><path fill="#999999" d="M159.975 90.765h51.45v5.51q0 2.47-.52 3.99-.51 1.52-1.03 2.55l-28.22 58.09q-.87 1.81-2.47 3.07-1.6 1.26-4.27 1.26h-9.22l28.79-56.91q.97-1.75 1.93-3.22.95-1.46 2.13-2.8h-35.63q-1.19 0-2.06-.88-.88-.87-.88-2.06v-8.6Zm84.82 65.35q3.14 0 5.51-.9 2.37-.9 3.99-2.49 1.63-1.6 2.45-3.82.82-2.21.82-4.79 0-6.12-3.4-9.27-3.39-3.14-9.37-3.14-5.97 0-9.37 3.14-3.4 3.15-3.4 9.27 0 2.58.82 4.79.83 2.22 2.45 3.82 1.62 1.59 3.99 2.49 2.37.9 5.51.9Zm0-56.59q-2.83 0-4.89.87-2.06.88-3.43 2.34-1.36 1.47-2 3.38-.65 1.9-.65 4.01 0 2.22.54 4.31.54 2.08 1.83 3.7 1.29 1.63 3.4 2.6 2.11.98 5.2.98 3.09 0 5.2-.98 2.11-.97 3.4-2.6 1.29-1.62 1.83-3.7.54-2.09.54-4.31 0-2.11-.67-4.01-.67-1.91-2.01-3.38-1.34-1.46-3.4-2.34-2.06-.87-4.89-.87Zm12.57 26.88q6.8 2.21 10.04 6.77 3.24 4.56 3.24 11.15 0 4.94-1.88 8.96-1.88 4.02-5.27 6.85-3.4 2.83-8.17 4.38-4.76 1.54-10.53 1.54t-10.53-1.54q-4.76-1.55-8.16-4.38-3.4-2.83-5.28-6.85-1.88-4.02-1.88-8.96 0-6.59 3.24-11.15 3.25-4.56 10.05-6.77-5.41-2.27-8.12-6.44-2.7-4.17-2.7-10.04 0-4.22 1.73-7.88 1.72-3.66 4.81-6.36t7.39-4.22q4.3-1.52 9.45-1.52 5.15 0 9.45 1.52 4.3 1.52 7.39 4.22 3.09 2.7 4.82 6.36 1.72 3.66 1.72 7.88 0 5.87-2.7 10.04-2.71 4.17-8.11 6.44Zm74.47 1.6q0 9.73-2.09 16.91-2.09 7.19-5.77 11.87-3.68 4.69-8.7 6.98t-10.84 2.29q-5.82 0-10.79-2.29-4.97-2.29-8.63-6.98-3.65-4.68-5.71-11.87-2.06-7.18-2.06-16.91 0-9.79 2.06-16.95t5.71-11.84q3.66-4.69 8.63-6.98 4.97-2.29 10.79-2.29 5.82 0 10.84 2.29t8.7 6.98q3.68 4.68 5.77 11.84 2.09 7.16 2.09 16.95Zm-13.14 0q0-8.09-1.18-13.39-1.19-5.31-3.17-8.45-1.98-3.14-4.56-4.4-2.57-1.27-5.35-1.27-2.73 0-5.28 1.27-2.55 1.26-4.51 4.4-1.95 3.14-3.11 8.45-1.16 5.3-1.16 13.39 0 8.08 1.16 13.39 1.16 5.3 3.11 8.44 1.96 3.14 4.51 4.4 2.55 1.27 5.28 1.27 2.78 0 5.35-1.27 2.58-1.26 4.56-4.4 1.98-3.14 3.17-8.44 1.18-5.31 1.18-13.39Zm94.92 20.18-6.75 6.65-17.46-17.46-17.61 17.56-6.75-6.64 17.62-17.67-16.79-16.79 6.69-6.69 16.79 16.79 16.69-16.69 6.8 6.7-16.74 16.73 17.51 17.51Zm62 5.2h19.11q2.06 0 3.27 1.16t1.21 3.07v7.62h-51.09v-4.22q0-1.29.54-2.71.54-1.41 1.73-2.55l22.61-22.66q2.83-2.88 5.07-5.51 2.24-2.62 3.73-5.2 1.5-2.57 2.3-5.23.79-2.65.79-5.58 0-2.68-.77-4.72-.77-2.03-2.19-3.42-1.41-1.39-3.4-2.09-1.98-.69-4.45-.69-2.27 0-4.2.64-1.93.65-3.42 1.81-1.5 1.15-2.53 2.7-1.03 1.54-1.54 3.4-.88 2.37-2.27 3.14-1.39.77-4.01.36l-6.7-1.18q.77-5.36 2.99-9.4 2.21-4.05 5.53-6.75 3.33-2.7 7.63-4.07 4.3-1.36 9.24-1.36 5.15 0 9.42 1.52 4.28 1.52 7.32 4.3t4.74 6.69q1.7 3.92 1.7 8.7 0 4.12-1.22 7.63-1.21 3.5-3.24 6.69-2.03 3.19-4.76 6.18-2.73 2.99-5.72 6.08l-16.79 17.15q2.42-.72 4.82-1.11 2.39-.39 4.55-.39Zm51.86-51.08-2.62 15.5q2.47-.52 4.74-.75 2.26-.23 4.37-.23 5.87 0 10.36 1.75 4.48 1.75 7.51 4.84 3.04 3.09 4.59 7.24 1.54 4.14 1.54 8.93 0 5.93-2.08 10.82-2.09 4.89-5.8 8.37-3.7 3.47-8.78 5.38-5.07 1.9-11.04 1.9-3.51 0-6.65-.72-3.14-.72-5.89-1.93-2.76-1.21-5.1-2.78-2.35-1.57-4.2-3.32l3.91-5.41q1.24-1.75 3.25-1.75 1.29 0 2.62.82 1.34.83 3.07 1.81 1.72.98 4.07 1.8 2.34.82 5.64.82 3.5 0 6.18-1.13 2.67-1.13 4.45-3.17 1.78-2.03 2.68-4.84.9-2.8.9-6.1 0-6.08-3.53-9.5-3.52-3.43-10.43-3.43-5.3 0-10.86 1.96l-7.93-2.27 6.18-36.15h36.77v5.41q0 2.73-1.7 4.43-1.7 1.7-5.77 1.7h-20.45Zm85.19-11.54-22.1 27.04-2.57 3.19q2.16-1.08 4.66-1.67 2.5-.59 5.38-.59 4.22 0 8.21 1.39 4 1.39 7.03 4.19 3.04 2.81 4.9 6.98 1.85 4.17 1.85 9.73 0 5.21-1.91 9.76-1.9 4.56-5.35 7.96-3.45 3.4-8.32 5.36-4.87 1.95-10.74 1.95-5.97 0-10.71-1.9-4.74-1.91-8.08-5.33-3.35-3.43-5.13-8.24-1.77-4.82-1.77-10.69 0-5.25 2.13-10.79 2.14-5.53 6.62-11.51l17.77-23.84q.92-1.24 2.7-2.11 1.78-.88 4.1-.88h11.33Zm-19.21 64.89q3.03 0 5.58-1.03 2.55-1.03 4.38-2.88 1.83-1.86 2.86-4.35 1.03-2.5 1.03-5.44 0-3.19-.98-5.74-.98-2.55-2.78-4.33-1.8-1.77-4.33-2.7-2.52-.93-5.56-.93-3.04 0-5.51 1.03-2.47 1.03-4.22 2.86-1.75 1.83-2.73 4.33-.98 2.49-.98 5.38 0 3.09.85 5.64t2.52 4.35q1.68 1.8 4.15 2.81 2.47 1 5.72 1Z"/></svg>